ModelForces
version=1
nRows=11
nColumns=21
inDegrees=no

This file contains the forces exerted on a model during a simulation.

A force is a generalized force, meaning that it can be either a force (N) or a torque (Nm).

Units are S.I. units (second, meters, Newtons, ...)
Angles are in degrees.

endheader
time	muscle1	muscle2	contactForce.block.force.X	contactForce.block.force.Y	contactForce.block.force.Z	contactForce.block.torque.X	contactForce.block.torque.Y	contactForce.block.torque.Z	contactForce.ground.force.X	contactForce.ground.force.Y	contactForce.ground.force.Z	contactForce.ground.torque.X	contactForce.ground.torque.Y	contactForce.ground.torque.Z	ground_prescribedForce_fx	ground_prescribedForce_fy	ground_prescribedForce_fz	ground_prescribedForce_px	ground_prescribedForce_py	ground_prescribedForce_pz
      3.22706985	    621.88672544	     76.54880008	    -29.08554588	   1216.52223789	     28.32366077	     23.93895830	      2.75817961	    -25.63196507	     29.08554588	  -1216.52223789	    -28.32366077	      0.72944761	     -2.94613684	     59.03683494	   -474.70116855	      0.00000000	      0.00000000	      0.08067675	      0.00000000	      0.00000000
      3.23002967	    623.26714552	     76.67243270	    -28.81665511	   1213.26906431	     28.19025425	     23.93343106	      2.69889405	    -25.50221531	     28.81665511	  -1213.26906431	    -28.19025425	      0.67599099	     -2.88816131	     58.80426802	   -475.13655722	      0.00000000	      0.00000000	      0.08075074	      0.00000000	      0.00000000
      3.23298949	    624.64745366	     76.78028930	    -30.27128632	   1209.93275223	     29.75756450	     23.83734368	      2.74500530	    -25.46455206	     30.27128632	  -1209.93275223	    -29.75756450	      0.62687587	     -2.94728994	     58.57593819	   -475.57194588	      0.00000000	      0.00000000	      0.08082474	      0.00000000	      0.00000000
      3.23594931	    625.93100870	     76.90945115	    -29.52120319	   1206.60213515	     29.19990738	     23.84191294	      2.65786104	    -25.32618788	     29.52120319	  -1206.60213515	    -29.19990738	      0.58269053	     -2.85963671	     58.35734151	   -476.00733455	      0.00000000	      0.00000000	      0.08089873	      0.00000000	      0.00000000
      3.23858249	    627.06296040	     77.01173057	    -31.12470976	   1203.72344721	     30.90070277	     23.73374477	      2.71669381	    -25.32502724	     31.12470976	  -1203.72344721	    -30.90070277	      0.54790064	     -2.93213970	     58.17529741	   -476.39467487	      0.00000000	      0.00000000	      0.08096456	      0.00000000	      0.00000000
      3.24121567	    628.11158411	     77.13470618	    -30.49810942	   1200.98547855	     30.45469546	     23.73030807	      2.64557131	    -25.22308715	     30.49810942	  -1200.98547855	    -30.45469546	      0.51763643	     -2.86119049	     58.00857256	   -476.78201519	      0.00000000	      0.00000000	      0.08103039	      0.00000000	      0.00000000
      3.24384885	    629.13007951	     77.25321394	    -31.58715510	   1198.45297196	     31.65135035	     23.64429549	      2.67636120	    -25.21757521	     31.58715510	  -1198.45297196	    -31.65135035	      0.49206667	     -2.90231003	     57.86035514	   -477.16935551	      0.00000000	      0.00000000	      0.08109622	      0.00000000	      0.00000000
      3.24648204	    630.07406376	     77.38898502	    -31.06219097	   1196.17947699	     31.29359580	     23.63553704	      2.61675128	    -25.14407509	     31.06219097	  -1196.17947699	    -31.29359580	      0.47129568	     -2.84333115	     57.73353001	   -477.55669583	      0.00000000	      0.00000000	      0.08116205	      0.00000000	      0.00000000
      3.24911522	    630.97756199	     77.52452855	    -32.00906605	   1194.22045417	     32.33220621	     23.55837540	      2.64394726	    -25.15672539	     32.00906605	  -1194.22045417	    -32.33220621	      0.45534215	     -2.87949504	     57.63061974	   -477.94403615	      0.00000000	      0.00000000	      0.08122788	      0.00000000	      0.00000000
      3.25174840	    631.80721748	     77.67819640	    -31.31664808	   1192.62000496	     31.79221864	     23.56158054	      2.58180086	    -25.10155859	     31.31664808	  -1192.62000496	    -31.79221864	      0.44416201	     -2.81653482	     57.55377021	   -478.33137647	      0.00000000	      0.00000000	      0.08129371	      0.00000000	      0.00000000
      3.25438158	    632.59640711	     77.83166890	    -32.36431007	   1191.42241259	     32.89820764	     23.48580458	      2.62081164	    -25.14690191	     32.36431007	  -1191.42241259	    -32.89820764	      0.43763013	     -2.86442647	     57.50470184	   -478.71871679	      0.00000000	      0.00000000	      0.08135954	      0.00000000	      0.00000000
